{
    "asset" : {
        "generator" : "Khronos glTF Blender I/O v0.9.36",
        "version" : "2.0"
    },
    "scene" : 0,
    "scenes" : [
        {
            "name" : "Scene",
            "nodes" : [
                0
            ]
        }
    ],
    "nodes" : [
        {
            "mesh" : 0,
            "name" : "Booster01"
        }
    ],
    "materials" : [
        {
            "doubleSided" : true,
            "name" : "white",
            "pbrMetallicRoughness" : {
                "baseColorFactor" : [
                    1,
                    1,
                    1,
                    1
                ],
                "metallicFactor" : 1,
                "roughnessFactor" : 0.7583333253860474
            }
        },
        {
            "doubleSided" : true,
            "name" : "black",
            "pbrMetallicRoughness" : {
                "baseColorFactor" : [
                    0,
                    0,
                    0,
                    1
                ],
                "metallicFactor" : 0,
                "roughnessFactor" : 0.5
            }
        },
        {
            "doubleSided" : true,
            "name" : "Thruster_grey",
            "pbrMetallicRoughness" : {
                "baseColorFactor" : [
                    0.043727632611989975,
                    0.043727632611989975,
                    0.043727632611989975,
                    1
                ],
                "metallicFactor" : 1,
                "roughnessFactor" : 0.5
            }
        }
    ],
    "meshes" : [
        {
            "name" : "Cube.000",
            "primitives" : [
                {
                    "attributes" : {
                        "POSITION" : 0,
                        "NORMAL" : 1,
                        "TEXCOORD_0" : 2
                    },
                    "indices" : 3,
                    "material" : 0
                },
                {
                    "attributes" : {
                        "POSITION" : 4,
                        "NORMAL" : 5,
                        "TEXCOORD_0" : 6
                    },
                    "indices" : 7,
                    "material" : 1
                },
                {
                    "attributes" : {
                        "POSITION" : 8,
                        "NORMAL" : 9,
                        "TEXCOORD_0" : 10
                    },
                    "indices" : 11,
                    "material" : 2
                }
            ]
        }
    ],
    "accessors" : [
        {
            "bufferView" : 0,
            "componentType" : 5126,
            "count" : 34,
            "max" : [
                0.14575399458408356,
                1.8561971187591553,
                0.10975988954305649
            ],
            "min" : [
                -0.1542460173368454,
                -0.5798805356025696,
                -0.10975993424654007
            ],
            "type" : "VEC3"
        },
        {
            "bufferView" : 1,
            "componentType" : 5126,
            "count" : 34,
            "type" : "VEC3"
        },
        {
            "bufferView" : 2,
            "componentType" : 5126,
            "count" : 34,
            "type" : "VEC2"
        },
        {
            "bufferView" : 3,
            "componentType" : 5123,
            "count" : 54,
            "type" : "SCALAR"
        },
        {
            "bufferView" : 4,
            "componentType" : 5126,
            "count" : 28,
            "max" : [
                0.14575399458408356,
                1.8561971187591553,
                0.10975988954305649
            ],
            "min" : [
                -0.1542460173368454,
                -0.5798805356025696,
                -0.10975993424654007
            ],
            "type" : "VEC3"
        },
        {
            "bufferView" : 5,
            "componentType" : 5126,
            "count" : 28,
            "type" : "VEC3"
        },
        {
            "bufferView" : 6,
            "componentType" : 5126,
            "count" : 28,
            "type" : "VEC2"
        },
        {
            "bufferView" : 7,
            "componentType" : 5123,
            "count" : 42,
            "type" : "SCALAR"
        },
        {
            "bufferView" : 8,
            "componentType" : 5126,
            "count" : 72,
            "max" : [
                0.132923886179924,
                -0.5674932599067688,
                0.13716989755630493
            ],
            "min" : [
                -0.14141598343849182,
                -0.6658328175544739,
                -0.13716992735862732
            ],
            "type" : "VEC3"
        },
        {
            "bufferView" : 9,
            "componentType" : 5126,
            "count" : 72,
            "type" : "VEC3"
        },
        {
            "bufferView" : 10,
            "componentType" : 5126,
            "count" : 72,
            "type" : "VEC2"
        },
        {
            "bufferView" : 11,
            "componentType" : 5123,
            "count" : 132,
            "type" : "SCALAR"
        }
    ],
    "bufferViews" : [
        {
            "buffer" : 0,
            "byteLength" : 408,
            "byteOffset" : 0
        },
        {
            "buffer" : 0,
            "byteLength" : 408,
            "byteOffset" : 408
        },
        {
            "buffer" : 0,
            "byteLength" : 272,
            "byteOffset" : 816
        },
        {
            "buffer" : 0,
            "byteLength" : 108,
            "byteOffset" : 1088
        },
        {
            "buffer" : 0,
            "byteLength" : 336,
            "byteOffset" : 1196
        },
        {
            "buffer" : 0,
            "byteLength" : 336,
            "byteOffset" : 1532
        },
        {
            "buffer" : 0,
            "byteLength" : 224,
            "byteOffset" : 1868
        },
        {
            "buffer" : 0,
            "byteLength" : 84,
            "byteOffset" : 2092
        },
        {
            "buffer" : 0,
            "byteLength" : 864,
            "byteOffset" : 2176
        },
        {
            "buffer" : 0,
            "byteLength" : 864,
            "byteOffset" : 3040
        },
        {
            "buffer" : 0,
            "byteLength" : 576,
            "byteOffset" : 3904
        },
        {
            "buffer" : 0,
            "byteLength" : 264,
            "byteOffset" : 4480
        }
    ],
    "buffers" : [
        {
            "byteLength" : 4744,
            "uri" : "data:application/octet-stream;base64,"
        }
    ]
}
