{
    "asset" : {
        "generator" : "Khronos glTF Blender I/O v0.9.36",
        "version" : "2.0"
    },
    "scene" : 0,
    "scenes" : [
        {
            "name" : "Scene",
            "nodes" : [
                0
            ]
        }
    ],
    "nodes" : [
        {
            "mesh" : 0,
            "name" : "Booster06",
            "scale" : [
                0.5848335027694702,
                0.5848335027694702,
                0.5848335027694702
            ]
        }
    ],
    "materials" : [
        {
            "doubleSided" : true,
            "name" : "white",
            "pbrMetallicRoughness" : {
                "baseColorFactor" : [
                    1,
                    1,
                    1,
                    1
                ],
                "metallicFactor" : 1,
                "roughnessFactor" : 0.7583333253860474
            }
        },
        {
            "doubleSided" : true,
            "name" : "brown",
            "pbrMetallicRoughness" : {
                "baseColorFactor" : [
                    0.3225818872451782,
                    0.09947255998849869,
                    0.03360847011208534,
                    1
                ],
                "metallicFactor" : 1,
                "roughnessFactor" : 0.3499999940395355
            }
        },
        {
            "doubleSided" : true,
            "name" : "black",
            "pbrMetallicRoughness" : {
                "baseColorFactor" : [
                    0,
                    0,
                    0,
                    1
                ],
                "metallicFactor" : 0,
                "roughnessFactor" : 0.5
            }
        }
    ],
    "meshes" : [
        {
            "name" : "Cylinder.061",
            "primitives" : [
                {
                    "attributes" : {
                        "POSITION" : 0,
                        "NORMAL" : 1,
                        "TEXCOORD_0" : 2
                    },
                    "indices" : 3,
                    "material" : 0
                },
                {
                    "attributes" : {
                        "POSITION" : 4,
                        "NORMAL" : 5,
                        "TEXCOORD_0" : 6
                    },
                    "indices" : 7,
                    "material" : 1
                },
                {
                    "attributes" : {
                        "POSITION" : 8,
                        "NORMAL" : 9,
                        "TEXCOORD_0" : 10
                    },
                    "indices" : 11,
                    "material" : 2
                }
            ]
        }
    ],
    "accessors" : [
        {
            "bufferView" : 0,
            "componentType" : 5126,
            "count" : 96,
            "max" : [
                0.30104291439056396,
                1.274999976158142,
                0.21650637686252594
            ],
            "min" : [
                -0.25747865438461304,
                -0.7074338793754578,
                -0.21650627255439758
            ],
            "type" : "VEC3"
        },
        {
            "bufferView" : 1,
            "componentType" : 5126,
            "count" : 96,
            "type" : "VEC3"
        },
        {
            "bufferView" : 2,
            "componentType" : 5126,
            "count" : 96,
            "type" : "VEC2"
        },
        {
            "bufferView" : 3,
            "componentType" : 5123,
            "count" : 144,
            "type" : "SCALAR"
        },
        {
            "bufferView" : 4,
            "componentType" : 5126,
            "count" : 60,
            "max" : [
                0.0030698180198669434,
                1.3416290283203125,
                0.13027425110340118
            ],
            "min" : [
                -0.25747865438461304,
                1.274999976158142,
                -0.1302742063999176
            ],
            "type" : "VEC3"
        },
        {
            "bufferView" : 5,
            "componentType" : 5126,
            "count" : 60,
            "type" : "VEC3"
        },
        {
            "bufferView" : 6,
            "componentType" : 5126,
            "count" : 60,
            "type" : "VEC2"
        },
        {
            "bufferView" : 7,
            "componentType" : 5123,
            "count" : 102,
            "type" : "SCALAR"
        },
        {
            "bufferView" : 8,
            "componentType" : 5126,
            "count" : 132,
            "max" : [
                0.31403663754463196,
                -0.7058955430984497,
                0.25895172357559204
            ],
            "min" : [
                -0.2939458191394806,
                -1.274999976158142,
                -0.25895172357559204
            ],
            "type" : "VEC3"
        },
        {
            "bufferView" : 9,
            "componentType" : 5126,
            "count" : 132,
            "type" : "VEC3"
        },
        {
            "bufferView" : 10,
            "componentType" : 5126,
            "count" : 132,
            "type" : "VEC2"
        },
        {
            "bufferView" : 11,
            "componentType" : 5123,
            "count" : 246,
            "type" : "SCALAR"
        }
    ],
    "bufferViews" : [
        {
            "buffer" : 0,
            "byteLength" : 1152,
            "byteOffset" : 0
        },
        {
            "buffer" : 0,
            "byteLength" : 1152,
            "byteOffset" : 1152
        },
        {
            "buffer" : 0,
            "byteLength" : 768,
            "byteOffset" : 2304
        },
        {
            "buffer" : 0,
            "byteLength" : 288,
            "byteOffset" : 3072
        },
        {
            "buffer" : 0,
            "byteLength" : 720,
            "byteOffset" : 3360
        },
        {
            "buffer" : 0,
            "byteLength" : 720,
            "byteOffset" : 4080
        },
        {
            "buffer" : 0,
            "byteLength" : 480,
            "byteOffset" : 4800
        },
        {
            "buffer" : 0,
            "byteLength" : 204,
            "byteOffset" : 5280
        },
        {
            "buffer" : 0,
            "byteLength" : 1584,
            "byteOffset" : 5484
        },
        {
            "buffer" : 0,
            "byteLength" : 1584,
            "byteOffset" : 7068
        },
        {
            "buffer" : 0,
            "byteLength" : 1056,
            "byteOffset" : 8652
        },
        {
            "buffer" : 0,
            "byteLength" : 492,
            "byteOffset" : 9708
        }
    ],
    "buffers" : [
        {
            "byteLength" : 10200,
            "uri" : "data:application/octet-stream;base64,"
        }
    ]
}
