{
    "asset" : {
        "generator" : "Khronos glTF Blender I/O v0.9.36",
        "version" : "2.0"
    },
    "scene" : 0,
    "scenes" : [
        {
            "name" : "Scene",
            "nodes" : [
                0
            ]
        }
    ],
    "nodes" : [
        {
            "mesh" : 0,
            "name" : "Head02"
        }
    ],
    "materials" : [
        {
            "doubleSided" : true,
            "name" : "white",
            "pbrMetallicRoughness" : {
                "baseColorFactor" : [
                    1,
                    1,
                    1,
                    1
                ],
                "metallicFactor" : 1,
                "roughnessFactor" : 0.7583333253860474
            }
        },
        {
            "doubleSided" : true,
            "name" : "blue",
            "pbrMetallicRoughness" : {
                "baseColorFactor" : [
                    0.005416117142885923,
                    0.0031916662119328976,
                    0.8000000715255737,
                    1
                ],
                "metallicFactor" : 1,
                "roughnessFactor" : 0.5
            }
        }
    ],
    "meshes" : [
        {
            "name" : "Cylinder.011",
            "primitives" : [
                {
                    "attributes" : {
                        "POSITION" : 0,
                        "NORMAL" : 1,
                        "TEXCOORD_0" : 2,
                        "COLOR_0" : 3
                    },
                    "indices" : 4,
                    "material" : 0
                },
                {
                    "attributes" : {
                        "POSITION" : 5,
                        "NORMAL" : 6,
                        "TEXCOORD_0" : 7,
                        "COLOR_0" : 8
                    },
                    "indices" : 9,
                    "material" : 1
                }
            ]
        }
    ],
    "accessors" : [
        {
            "bufferView" : 0,
            "componentType" : 5126,
            "count" : 215,
            "max" : [
                0.25,
                0.14000000059604645,
                0.25
            ],
            "min" : [
                -0.25,
                -0.15000000596046448,
                -0.25
            ],
            "type" : "VEC3"
        },
        {
            "bufferView" : 1,
            "componentType" : 5126,
            "count" : 215,
            "type" : "VEC3"
        },
        {
            "bufferView" : 2,
            "componentType" : 5126,
            "count" : 215,
            "type" : "VEC2"
        },
        {
            "bufferView" : 3,
            "componentType" : 5126,
            "count" : 215,
            "type" : "VEC4"
        },
        {
            "bufferView" : 4,
            "componentType" : 5123,
            "count" : 306,
            "type" : "SCALAR"
        },
        {
            "bufferView" : 5,
            "componentType" : 5126,
            "count" : 62,
            "max" : [
                0.17720548808574677,
                0.00704899663105607,
                0.245214581489563
            ],
            "min" : [
                0.04853810742497444,
                -0.1379518061876297,
                0.1550959050655365
            ],
            "type" : "VEC3"
        },
        {
            "bufferView" : 6,
            "componentType" : 5126,
            "count" : 62,
            "type" : "VEC3"
        },
        {
            "bufferView" : 7,
            "componentType" : 5126,
            "count" : 62,
            "type" : "VEC2"
        },
        {
            "bufferView" : 8,
            "componentType" : 5126,
            "count" : 62,
            "type" : "VEC4"
        },
        {
            "bufferView" : 9,
            "componentType" : 5123,
            "count" : 72,
            "type" : "SCALAR"
        }
    ],
    "bufferViews" : [
        {
            "buffer" : 0,
            "byteLength" : 2580,
            "byteOffset" : 0
        },
        {
            "buffer" : 0,
            "byteLength" : 2580,
            "byteOffset" : 2580
        },
        {
            "buffer" : 0,
            "byteLength" : 1720,
            "byteOffset" : 5160
        },
        {
            "buffer" : 0,
            "byteLength" : 3440,
            "byteOffset" : 6880
        },
        {
            "buffer" : 0,
            "byteLength" : 612,
            "byteOffset" : 10320
        },
        {
            "buffer" : 0,
            "byteLength" : 744,
            "byteOffset" : 10932
        },
        {
            "buffer" : 0,
            "byteLength" : 744,
            "byteOffset" : 11676
        },
        {
            "buffer" : 0,
            "byteLength" : 496,
            "byteOffset" : 12420
        },
        {
            "buffer" : 0,
            "byteLength" : 992,
            "byteOffset" : 12916
        },
        {
            "buffer" : 0,
            "byteLength" : 144,
            "byteOffset" : 13908
        }
    ],
    "buffers" : [
        {
            "byteLength" : 14052,
            "uri" : "data:application/octet-stream;base64,"
        }
    ]
}
