{
    "asset" : {
        "generator" : "Khronos glTF Blender I/O v0.9.36",
        "version" : "2.0"
    },
    "scene" : 0,
    "scenes" : [
        {
            "name" : "Scene",
            "nodes" : [
                0,
                1,
                2,
                3,
                4
            ]
        }
    ],
    "nodes" : [
        {
            "mesh" : 0,
            "name" : "DroneTaxi",
            "translation" : [
                0.0732870101928711,
                0,
                0
            ]
        },
        {
            "mesh" : 1,
            "name" : "Rotor00",
            "rotation" : [
                0,
                0.1736481934785843,
                0,
                0.9848077297210693
            ],
            "translation" : [
                -2.8627583980560303,
                3.122943639755249,
                -3.1578612327575684
            ]
        },
        {
            "mesh" : 1,
            "name" : "Rotor00.001",
            "rotation" : [
                0,
                0.1736481934785843,
                0,
                0.9848077297210693
            ],
            "translation" : [
                -2.9005370140075684,
                3.122943639755249,
                3.1322836875915527
            ]
        },
        {
            "mesh" : 1,
            "name" : "Rotor00.002",
            "rotation" : [
                0,
                0.1736481934785843,
                0,
                0.9848077297210693
            ],
            "translation" : [
                3.5218329429626465,
                3.122943639755249,
                -3.1578612327575684
            ]
        },
        {
            "mesh" : 1,
            "name" : "Rotor00.003",
            "rotation" : [
                0,
                0.1736481934785843,
                0,
                0.9848077297210693
            ],
            "translation" : [
                3.5218329429626465,
                3.122943639755249,
                3.1700620651245117
            ]
        }
    ],
    "animations" : [
        {
            "channels" : [
                {
                    "sampler" : 0,
                    "target" : {
                        "node" : 1,
                        "path" : "rotation"
                    }
                }
            ],
            "name" : "Cube.001Action.001",
            "samplers" : [
                {
                    "input" : 12,
                    "interpolation" : "CUBICSPLINE",
                    "output" : 13
                }
            ]
        },
        {
            "channels" : [
                {
                    "sampler" : 0,
                    "target" : {
                        "node" : 2,
                        "path" : "rotation"
                    }
                }
            ],
            "name" : "Cube.001Action.001",
            "samplers" : [
                {
                    "input" : 12,
                    "interpolation" : "CUBICSPLINE",
                    "output" : 13
                }
            ]
        },
        {
            "channels" : [
                {
                    "sampler" : 0,
                    "target" : {
                        "node" : 3,
                        "path" : "rotation"
                    }
                }
            ],
            "name" : "Cube.001Action.001",
            "samplers" : [
                {
                    "input" : 12,
                    "interpolation" : "CUBICSPLINE",
                    "output" : 13
                }
            ]
        },
        {
            "channels" : [
                {
                    "sampler" : 0,
                    "target" : {
                        "node" : 4,
                        "path" : "rotation"
                    }
                }
            ],
            "name" : "Cube.001Action.001",
            "samplers" : [
                {
                    "input" : 12,
                    "interpolation" : "CUBICSPLINE",
                    "output" : 13
                }
            ]
        }
    ],
    "materials" : [
        {
            "doubleSided" : true,
            "name" : "silver",
            "pbrMetallicRoughness" : {
                "baseColorFactor" : [
                    0.800000011920929,
                    0.800000011920929,
                    0.800000011920929,
                    1
                ],
                "metallicFactor" : 1,
                "roughnessFactor" : 0.5
            }
        },
        {
            "doubleSided" : true,
            "name" : "blue",
            "pbrMetallicRoughness" : {
                "baseColorFactor" : [
                    0.05331728979945183,
                    0.12322632223367691,
                    0.8000000715255737,
                    1
                ],
                "metallicFactor" : 0,
                "roughnessFactor" : 0
            }
        },
        {
            "doubleSided" : true,
            "name" : "black",
            "pbrMetallicRoughness" : {
                "baseColorFactor" : [
                    0,
                    0,
                    0,
                    1
                ],
                "metallicFactor" : 0,
                "roughnessFactor" : 0.5
            }
        }
    ],
    "meshes" : [
        {
            "name" : "Plane",
            "primitives" : [
                {
                    "attributes" : {
                        "POSITION" : 0,
                        "NORMAL" : 1,
                        "TEXCOORD_0" : 2
                    },
                    "indices" : 3,
                    "material" : 0
                },
                {
                    "attributes" : {
                        "POSITION" : 4,
                        "NORMAL" : 5,
                        "TEXCOORD_0" : 6
                    },
                    "indices" : 7,
                    "material" : 1
                }
            ]
        },
        {
            "name" : "Cube.010",
            "primitives" : [
                {
                    "attributes" : {
                        "POSITION" : 8,
                        "NORMAL" : 9,
                        "TEXCOORD_0" : 10
                    },
                    "indices" : 11,
                    "material" : 2
                }
            ]
        }
    ],
    "accessors" : [
        {
            "bufferView" : 0,
            "componentType" : 5126,
            "count" : 1168,
            "max" : [
                3.7160584926605225,
                3.027198076248169,
                3.3422584533691406
            ],
            "min" : [
                -3.181759834289551,
                -1.0836117267608643,
                -3.3490757942199707
            ],
            "type" : "VEC3"
        },
        {
            "bufferView" : 1,
            "componentType" : 5126,
            "count" : 1168,
            "type" : "VEC3"
        },
        {
            "bufferView" : 2,
            "componentType" : 5126,
            "count" : 1168,
            "type" : "VEC2"
        },
        {
            "bufferView" : 3,
            "componentType" : 5123,
            "count" : 1776,
            "type" : "SCALAR"
        },
        {
            "bufferView" : 4,
            "componentType" : 5126,
            "count" : 80,
            "max" : [
                0.3745032548904419,
                1.9761195182800293,
                1.2002837657928467
            ],
            "min" : [
                -2.37855863571167,
                0.7765291929244995,
                -1.2002837657928467
            ],
            "type" : "VEC3"
        },
        {
            "bufferView" : 5,
            "componentType" : 5126,
            "count" : 80,
            "type" : "VEC3"
        },
        {
            "bufferView" : 6,
            "componentType" : 5126,
            "count" : 80,
            "type" : "VEC2"
        },
        {
            "bufferView" : 7,
            "componentType" : 5123,
            "count" : 120,
            "type" : "SCALAR"
        },
        {
            "bufferView" : 8,
            "componentType" : 5126,
            "count" : 88,
            "max" : [
                2.1123554706573486,
                0.10236415266990662,
                2.1123554706573486
            ],
            "min" : [
                -2.1123554706573486,
                -0.10236415266990662,
                -2.1123554706573486
            ],
            "type" : "VEC3"
        },
        {
            "bufferView" : 9,
            "componentType" : 5126,
            "count" : 88,
            "type" : "VEC3"
        },
        {
            "bufferView" : 10,
            "componentType" : 5126,
            "count" : 88,
            "type" : "VEC2"
        },
        {
            "bufferView" : 11,
            "componentType" : 5123,
            "count" : 132,
            "type" : "SCALAR"
        },
        {
            "bufferView" : 12,
            "componentType" : 5126,
            "count" : 2,
            "max" : [
                0.4166666666666667
            ],
            "min" : [
                0.041666666666666664
            ],
            "type" : "SCALAR"
        },
        {
            "bufferView" : 13,
            "componentType" : 5126,
            "count" : 6,
            "type" : "VEC4"
        }
    ],
    "bufferViews" : [
        {
            "buffer" : 0,
            "byteLength" : 14016,
            "byteOffset" : 0
        },
        {
            "buffer" : 0,
            "byteLength" : 14016,
            "byteOffset" : 14016
        },
        {
            "buffer" : 0,
            "byteLength" : 9344,
            "byteOffset" : 28032
        },
        {
            "buffer" : 0,
            "byteLength" : 3552,
            "byteOffset" : 37376
        },
        {
            "buffer" : 0,
            "byteLength" : 960,
            "byteOffset" : 40928
        },
        {
            "buffer" : 0,
            "byteLength" : 960,
            "byteOffset" : 41888
        },
        {
            "buffer" : 0,
            "byteLength" : 640,
            "byteOffset" : 42848
        },
        {
            "buffer" : 0,
            "byteLength" : 240,
            "byteOffset" : 43488
        },
        {
            "buffer" : 0,
            "byteLength" : 1056,
            "byteOffset" : 43728
        },
        {
            "buffer" : 0,
            "byteLength" : 1056,
            "byteOffset" : 44784
        },
        {
            "buffer" : 0,
            "byteLength" : 704,
            "byteOffset" : 45840
        },
        {
            "buffer" : 0,
            "byteLength" : 264,
            "byteOffset" : 46544
        },
        {
            "buffer" : 0,
            "byteLength" : 8,
            "byteOffset" : 46808
        },
        {
            "buffer" : 0,
            "byteLength" : 96,
            "byteOffset" : 46816
        }
    ],
    "buffers" : [
        {
            "byteLength" : 46912,
            "uri" : "data:application/octet-stream;base64,"
        }
    ]
}
