{
    "asset" : {
        "generator" : "Khronos glTF Blender I/O v0.9.73",
        "version" : "2.0"
    },
    "scene" : 0,
    "scenes" : [
        {
            "name" : "Scene",
            "nodes" : [
                0
            ]
        }
    ],
    "nodes" : [
        {
            "mesh" : 0,
            "name" : "balloon01",
            "rotation" : [
                0,
                -0.1736481636762619,
                0,
                0.9848077297210693
            ]
        }
    ],
    "materials" : [
        {
            "doubleSided" : true,
            "name" : "brown.001",
            "pbrMetallicRoughness" : {
                "baseColorFactor" : [
                    0.16794881224632263,
                    0.06513919681310654,
                    0.016294866800308228,
                    1
                ],
                "metallicFactor" : 0,
                "roughnessFactor" : 0.7916666865348816
            }
        },
        {
            "doubleSided" : true,
            "name" : "grey.000",
            "pbrMetallicRoughness" : {
                "baseColorFactor" : [
                    0.35884034633636475,
                    0.35884034633636475,
                    0.35884034633636475,
                    1
                ],
                "metallicFactor" : 0,
                "roughnessFactor" : 0.5
            }
        },
        {
            "doubleSided" : true,
            "name" : "orange.001",
            "pbrMetallicRoughness" : {
                "baseColorFactor" : [
                    1,
                    0.12561804056167603,
                    0,
                    1
                ],
                "metallicFactor" : 0,
                "roughnessFactor" : 0.5
            }
        },
        {
            "doubleSided" : true,
            "name" : "yellow.001",
            "pbrMetallicRoughness" : {
                "baseColorFactor" : [
                    0.8000000715255737,
                    0.5299234390258789,
                    0.00045040270197205245,
                    1
                ],
                "metallicFactor" : 0,
                "roughnessFactor" : 0.5
            }
        },
        {
            "doubleSided" : true,
            "name" : "red",
            "pbrMetallicRoughness" : {
                "baseColorFactor" : [
                    0.8000000715255737,
                    0.011421122588217258,
                    0.013450083322823048,
                    1
                ],
                "metallicFactor" : 0,
                "roughnessFactor" : 0.5
            }
        },
        {
            "doubleSided" : true,
            "name" : "dark_brown.001",
            "pbrMetallicRoughness" : {
                "baseColorFactor" : [
                    0.08001174032688141,
                    0.01626805029809475,
                    0.005959086585789919,
                    1
                ],
                "metallicFactor" : 0,
                "roughnessFactor" : 0.7749999761581421
            }
        },
        {
            "doubleSided" : true,
            "name" : "light_brown.001",
            "pbrMetallicRoughness" : {
                "baseColorFactor" : [
                    0.34238407015800476,
                    0.19806480407714844,
                    0.05974840372800827,
                    1
                ],
                "metallicFactor" : 0,
                "roughnessFactor" : 0.5
            }
        }
    ],
    "meshes" : [
        {
            "name" : "Icosphere.004",
            "primitives" : [
                {
                    "attributes" : {
                        "POSITION" : 0,
                        "NORMAL" : 1,
                        "TEXCOORD_0" : 2
                    },
                    "indices" : 3,
                    "material" : 0
                },
                {
                    "attributes" : {
                        "POSITION" : 4,
                        "NORMAL" : 5,
                        "TEXCOORD_0" : 6
                    },
                    "indices" : 7,
                    "material" : 1
                },
                {
                    "attributes" : {
                        "POSITION" : 8,
                        "NORMAL" : 9,
                        "TEXCOORD_0" : 10
                    },
                    "indices" : 11,
                    "material" : 2
                },
                {
                    "attributes" : {
                        "POSITION" : 12,
                        "NORMAL" : 13,
                        "TEXCOORD_0" : 14
                    },
                    "indices" : 15,
                    "material" : 3
                },
                {
                    "attributes" : {
                        "POSITION" : 16,
                        "NORMAL" : 17,
                        "TEXCOORD_0" : 18
                    },
                    "indices" : 19,
                    "material" : 4
                },
                {
                    "attributes" : {
                        "POSITION" : 20,
                        "NORMAL" : 21,
                        "TEXCOORD_0" : 22
                    },
                    "indices" : 23,
                    "material" : 5
                },
                {
                    "attributes" : {
                        "POSITION" : 24,
                        "NORMAL" : 25,
                        "TEXCOORD_0" : 26
                    },
                    "indices" : 27,
                    "material" : 6
                }
            ]
        }
    ],
    "accessors" : [
        {
            "bufferView" : 0,
            "componentType" : 5126,
            "count" : 228,
            "max" : [
                0.46793830394744873,
                -1.8208520412445068,
                0.21451568603515625
            ],
            "min" : [
                -0.22362995147705078,
                -2.62595272064209,
                -0.22302943468093872
            ],
            "type" : "VEC3"
        },
        {
            "bufferView" : 1,
            "componentType" : 5126,
            "count" : 228,
            "type" : "VEC3"
        },
        {
            "bufferView" : 2,
            "componentType" : 5126,
            "count" : 228,
            "type" : "VEC2"
        },
        {
            "bufferView" : 3,
            "componentType" : 5123,
            "count" : 342,
            "type" : "SCALAR"
        },
        {
            "bufferView" : 4,
            "componentType" : 5126,
            "count" : 80,
            "max" : [
                0.34427666664123535,
                -1.1728684902191162,
                0.34487736225128174
            ],
            "min" : [
                -0.3539917469024658,
                -1.8440732955932617,
                -0.3533911108970642
            ],
            "type" : "VEC3"
        },
        {
            "bufferView" : 5,
            "componentType" : 5126,
            "count" : 80,
            "type" : "VEC3"
        },
        {
            "bufferView" : 6,
            "componentType" : 5126,
            "count" : 80,
            "type" : "VEC2"
        },
        {
            "bufferView" : 7,
            "componentType" : 5123,
            "count" : 120,
            "type" : "SCALAR"
        },
        {
            "bufferView" : 8,
            "componentType" : 5126,
            "count" : 119,
            "max" : [
                1.761519432067871,
                1.1980581283569336,
                1.2052162885665894
            ],
            "min" : [
                -0.7426311373710632,
                -0.9658100605010986,
                -1.1795766353607178
            ],
            "type" : "VEC3"
        },
        {
            "bufferView" : 9,
            "componentType" : 5126,
            "count" : 119,
            "type" : "VEC3"
        },
        {
            "bufferView" : 10,
            "componentType" : 5126,
            "count" : 119,
            "type" : "VEC2"
        },
        {
            "bufferView" : 11,
            "componentType" : 5123,
            "count" : 165,
            "type" : "SCALAR"
        },
        {
            "bufferView" : 12,
            "componentType" : 5126,
            "count" : 210,
            "max" : [
                1.0676934719085693,
                1,
                1.014172911643982
            ],
            "min" : [
                -1.0662394762039185,
                -1.2322570085525513,
                -1.014702320098877
            ],
            "type" : "VEC3"
        },
        {
            "bufferView" : 13,
            "componentType" : 5126,
            "count" : 210,
            "type" : "VEC3"
        },
        {
            "bufferView" : 14,
            "componentType" : 5126,
            "count" : 210,
            "type" : "VEC2"
        },
        {
            "bufferView" : 15,
            "componentType" : 5123,
            "count" : 210,
            "type" : "SCALAR"
        },
        {
            "bufferView" : 16,
            "componentType" : 5126,
            "count" : 15,
            "max" : [
                -0.9911780953407288,
                -0.018731944262981415,
                0.3509352207183838
            ],
            "min" : [
                -1.2344979047775269,
                -0.5743181109428406,
                -0.2760128676891327
            ],
            "type" : "VEC3"
        },
        {
            "bufferView" : 17,
            "componentType" : 5126,
            "count" : 15,
            "type" : "VEC3"
        },
        {
            "bufferView" : 18,
            "componentType" : 5126,
            "count" : 15,
            "type" : "VEC2"
        },
        {
            "bufferView" : 19,
            "componentType" : 5123,
            "count" : 21,
            "type" : "SCALAR"
        },
        {
            "bufferView" : 20,
            "componentType" : 5126,
            "count" : 328,
            "max" : [
                0.4768834114074707,
                -1.8208520412445068,
                0.23323297500610352
            ],
            "min" : [
                -0.24234747886657715,
                -2.636803150177002,
                -0.24174678325653076
            ],
            "type" : "VEC3"
        },
        {
            "bufferView" : 21,
            "componentType" : 5126,
            "count" : 328,
            "type" : "VEC3"
        },
        {
            "bufferView" : 22,
            "componentType" : 5126,
            "count" : 328,
            "type" : "VEC2"
        },
        {
            "bufferView" : 23,
            "componentType" : 5123,
            "count" : 534,
            "type" : "SCALAR"
        },
        {
            "bufferView" : 24,
            "componentType" : 5126,
            "count" : 180,
            "max" : [
                0.04524528980255127,
                -1.8582513332366943,
                0.30067145824432373
            ],
            "min" : [
                -0.29332852363586426,
                -2.104800224304199,
                -0.30381065607070923
            ],
            "type" : "VEC3"
        },
        {
            "bufferView" : 25,
            "componentType" : 5126,
            "count" : 180,
            "type" : "VEC3"
        },
        {
            "bufferView" : 26,
            "componentType" : 5126,
            "count" : 180,
            "type" : "VEC2"
        },
        {
            "bufferView" : 27,
            "componentType" : 5123,
            "count" : 180,
            "type" : "SCALAR"
        }
    ],
    "bufferViews" : [
        {
            "buffer" : 0,
            "byteLength" : 2736,
            "byteOffset" : 0
        },
        {
            "buffer" : 0,
            "byteLength" : 2736,
            "byteOffset" : 2736
        },
        {
            "buffer" : 0,
            "byteLength" : 1824,
            "byteOffset" : 5472
        },
        {
            "buffer" : 0,
            "byteLength" : 684,
            "byteOffset" : 7296
        },
        {
            "buffer" : 0,
            "byteLength" : 960,
            "byteOffset" : 7980
        },
        {
            "buffer" : 0,
            "byteLength" : 960,
            "byteOffset" : 8940
        },
        {
            "buffer" : 0,
            "byteLength" : 640,
            "byteOffset" : 9900
        },
        {
            "buffer" : 0,
            "byteLength" : 240,
            "byteOffset" : 10540
        },
        {
            "buffer" : 0,
            "byteLength" : 1428,
            "byteOffset" : 10780
        },
        {
            "buffer" : 0,
            "byteLength" : 1428,
            "byteOffset" : 12208
        },
        {
            "buffer" : 0,
            "byteLength" : 952,
            "byteOffset" : 13636
        },
        {
            "buffer" : 0,
            "byteLength" : 330,
            "byteOffset" : 14588
        },
        {
            "buffer" : 0,
            "byteLength" : 2520,
            "byteOffset" : 14920
        },
        {
            "buffer" : 0,
            "byteLength" : 2520,
            "byteOffset" : 17440
        },
        {
            "buffer" : 0,
            "byteLength" : 1680,
            "byteOffset" : 19960
        },
        {
            "buffer" : 0,
            "byteLength" : 420,
            "byteOffset" : 21640
        },
        {
            "buffer" : 0,
            "byteLength" : 180,
            "byteOffset" : 22060
        },
        {
            "buffer" : 0,
            "byteLength" : 180,
            "byteOffset" : 22240
        },
        {
            "buffer" : 0,
            "byteLength" : 120,
            "byteOffset" : 22420
        },
        {
            "buffer" : 0,
            "byteLength" : 42,
            "byteOffset" : 22540
        },
        {
            "buffer" : 0,
            "byteLength" : 3936,
            "byteOffset" : 22584
        },
        {
            "buffer" : 0,
            "byteLength" : 3936,
            "byteOffset" : 26520
        },
        {
            "buffer" : 0,
            "byteLength" : 2624,
            "byteOffset" : 30456
        },
        {
            "buffer" : 0,
            "byteLength" : 1068,
            "byteOffset" : 33080
        },
        {
            "buffer" : 0,
            "byteLength" : 2160,
            "byteOffset" : 34148
        },
        {
            "buffer" : 0,
            "byteLength" : 2160,
            "byteOffset" : 36308
        },
        {
            "buffer" : 0,
            "byteLength" : 1440,
            "byteOffset" : 38468
        },
        {
            "buffer" : 0,
            "byteLength" : 360,
            "byteOffset" : 39908
        }
    ],
    "buffers" : [
        {
            "byteLength" : 40268,
            "uri" : "data:application/octet-stream;base64,"
        }
    ]
}
