{
    "asset" : {
        "generator" : "Khronos glTF Blender I/O v0.9.73",
        "version" : "2.0"
    },
    "scene" : 0,
    "scenes" : [
        {
            "name" : "Scene",
            "nodes" : [
                0
            ]
        }
    ],
    "nodes" : [
        {
            "mesh" : 0,
            "name" : "balloon00",
            "rotation" : [
                0,
                -0.1736481636762619,
                0,
                0.9848077297210693
            ]
        }
    ],
    "materials" : [
        {
            "doubleSided" : true,
            "name" : "brown",
            "pbrMetallicRoughness" : {
                "baseColorFactor" : [
                    0.16794881224632263,
                    0.06513919681310654,
                    0.016294866800308228,
                    1
                ],
                "metallicFactor" : 0,
                "roughnessFactor" : 0.7916666865348816
            }
        },
        {
            "doubleSided" : true,
            "name" : "grey.001",
            "pbrMetallicRoughness" : {
                "baseColorFactor" : [
                    0.35884034633636475,
                    0.35884034633636475,
                    0.35884034633636475,
                    1
                ],
                "metallicFactor" : 0,
                "roughnessFactor" : 0.5
            }
        },
        {
            "doubleSided" : true,
            "name" : "orange",
            "pbrMetallicRoughness" : {
                "baseColorFactor" : [
                    1,
                    0.12561804056167603,
                    0,
                    1
                ],
                "metallicFactor" : 0,
                "roughnessFactor" : 0.5
            }
        },
        {
            "doubleSided" : true,
            "name" : "yellow",
            "pbrMetallicRoughness" : {
                "baseColorFactor" : [
                    0.8000000715255737,
                    0.5299234390258789,
                    0.00045040270197205245,
                    1
                ],
                "metallicFactor" : 0,
                "roughnessFactor" : 0.5
            }
        },
        {
            "doubleSided" : true,
            "name" : "dark_brown",
            "pbrMetallicRoughness" : {
                "baseColorFactor" : [
                    0.08001174032688141,
                    0.01626805029809475,
                    0.005959086585789919,
                    1
                ],
                "metallicFactor" : 0,
                "roughnessFactor" : 0.7749999761581421
            }
        },
        {
            "doubleSided" : true,
            "name" : "light_brown",
            "pbrMetallicRoughness" : {
                "baseColorFactor" : [
                    0.34238407015800476,
                    0.19806480407714844,
                    0.05974840372800827,
                    1
                ],
                "metallicFactor" : 0,
                "roughnessFactor" : 0.5
            }
        }
    ],
    "meshes" : [
        {
            "name" : "Icosphere.006",
            "primitives" : [
                {
                    "attributes" : {
                        "POSITION" : 0,
                        "NORMAL" : 1,
                        "TEXCOORD_0" : 2
                    },
                    "indices" : 3,
                    "material" : 0
                },
                {
                    "attributes" : {
                        "POSITION" : 4,
                        "NORMAL" : 5,
                        "TEXCOORD_0" : 6
                    },
                    "indices" : 7,
                    "material" : 1
                },
                {
                    "attributes" : {
                        "POSITION" : 8,
                        "NORMAL" : 9,
                        "TEXCOORD_0" : 10
                    },
                    "indices" : 11,
                    "material" : 2
                },
                {
                    "attributes" : {
                        "POSITION" : 12,
                        "NORMAL" : 13,
                        "TEXCOORD_0" : 14
                    },
                    "indices" : 15,
                    "material" : 3
                },
                {
                    "attributes" : {
                        "POSITION" : 16,
                        "NORMAL" : 17,
                        "TEXCOORD_0" : 18
                    },
                    "indices" : 19,
                    "material" : 4
                },
                {
                    "attributes" : {
                        "POSITION" : 20,
                        "NORMAL" : 21,
                        "TEXCOORD_0" : 22
                    },
                    "indices" : 23,
                    "material" : 5
                }
            ]
        }
    ],
    "accessors" : [
        {
            "bufferView" : 0,
            "componentType" : 5126,
            "count" : 228,
            "max" : [
                0.4727957248687744,
                -1.6467007398605347,
                0.2187725007534027
            ],
            "min" : [
                -0.2187725156545639,
                -2.4518015384674072,
                -0.2187725007534027
            ],
            "type" : "VEC3"
        },
        {
            "bufferView" : 1,
            "componentType" : 5126,
            "count" : 228,
            "type" : "VEC3"
        },
        {
            "bufferView" : 2,
            "componentType" : 5126,
            "count" : 228,
            "type" : "VEC2"
        },
        {
            "bufferView" : 3,
            "componentType" : 5123,
            "count" : 342,
            "type" : "SCALAR"
        },
        {
            "bufferView" : 4,
            "componentType" : 5126,
            "count" : 96,
            "max" : [
                0.3491341769695282,
                -0.998717188835144,
                0.3491341471672058
            ],
            "min" : [
                -0.3491342067718506,
                -1.6699219942092896,
                -0.3491342067718506
            ],
            "type" : "VEC3"
        },
        {
            "bufferView" : 5,
            "componentType" : 5126,
            "count" : 96,
            "type" : "VEC3"
        },
        {
            "bufferView" : 6,
            "componentType" : 5126,
            "count" : 96,
            "type" : "VEC2"
        },
        {
            "bufferView" : 7,
            "componentType" : 5123,
            "count" : 144,
            "type" : "SCALAR"
        },
        {
            "bufferView" : 8,
            "componentType" : 5126,
            "count" : 165,
            "max" : [
                0.9510578513145447,
                0.8506543636322021,
                0.9999999403953552
            ],
            "min" : [
                -0.9510578513145447,
                -1.185839295387268,
                -0.9999999403953552
            ],
            "type" : "VEC3"
        },
        {
            "bufferView" : 9,
            "componentType" : 5126,
            "count" : 165,
            "type" : "VEC3"
        },
        {
            "bufferView" : 10,
            "componentType" : 5126,
            "count" : 165,
            "type" : "VEC2"
        },
        {
            "bufferView" : 11,
            "componentType" : 5123,
            "count" : 165,
            "type" : "SCALAR"
        },
        {
            "bufferView" : 12,
            "componentType" : 5126,
            "count" : 75,
            "max" : [
                0.9510578513145447,
                1,
                0.9999999403953552
            ],
            "min" : [
                -0.9510578513145447,
                -1.2322570085525513,
                -0.9999999403953552
            ],
            "type" : "VEC3"
        },
        {
            "bufferView" : 13,
            "componentType" : 5126,
            "count" : 75,
            "type" : "VEC3"
        },
        {
            "bufferView" : 14,
            "componentType" : 5126,
            "count" : 75,
            "type" : "VEC2"
        },
        {
            "bufferView" : 15,
            "componentType" : 5123,
            "count" : 75,
            "type" : "SCALAR"
        },
        {
            "bufferView" : 16,
            "componentType" : 5126,
            "count" : 332,
            "max" : [
                0.4817408621311188,
                -1.6467007398605347,
                0.23748986423015594
            ],
            "min" : [
                -0.23748987913131714,
                -2.4626519680023193,
                -0.23748986423015594
            ],
            "type" : "VEC3"
        },
        {
            "bufferView" : 17,
            "componentType" : 5126,
            "count" : 332,
            "type" : "VEC3"
        },
        {
            "bufferView" : 18,
            "componentType" : 5126,
            "count" : 332,
            "type" : "VEC2"
        },
        {
            "bufferView" : 19,
            "componentType" : 5123,
            "count" : 534,
            "type" : "SCALAR"
        },
        {
            "bufferView" : 20,
            "componentType" : 5126,
            "count" : 180,
            "max" : [
                0.05010278522968292,
                -1.6841000318527222,
                0.30492836236953735
            ],
            "min" : [
                -0.2884708642959595,
                -1.9306490421295166,
                -0.2995537519454956
            ],
            "type" : "VEC3"
        },
        {
            "bufferView" : 21,
            "componentType" : 5126,
            "count" : 180,
            "type" : "VEC3"
        },
        {
            "bufferView" : 22,
            "componentType" : 5126,
            "count" : 180,
            "type" : "VEC2"
        },
        {
            "bufferView" : 23,
            "componentType" : 5123,
            "count" : 180,
            "type" : "SCALAR"
        }
    ],
    "bufferViews" : [
        {
            "buffer" : 0,
            "byteLength" : 2736,
            "byteOffset" : 0
        },
        {
            "buffer" : 0,
            "byteLength" : 2736,
            "byteOffset" : 2736
        },
        {
            "buffer" : 0,
            "byteLength" : 1824,
            "byteOffset" : 5472
        },
        {
            "buffer" : 0,
            "byteLength" : 684,
            "byteOffset" : 7296
        },
        {
            "buffer" : 0,
            "byteLength" : 1152,
            "byteOffset" : 7980
        },
        {
            "buffer" : 0,
            "byteLength" : 1152,
            "byteOffset" : 9132
        },
        {
            "buffer" : 0,
            "byteLength" : 768,
            "byteOffset" : 10284
        },
        {
            "buffer" : 0,
            "byteLength" : 288,
            "byteOffset" : 11052
        },
        {
            "buffer" : 0,
            "byteLength" : 1980,
            "byteOffset" : 11340
        },
        {
            "buffer" : 0,
            "byteLength" : 1980,
            "byteOffset" : 13320
        },
        {
            "buffer" : 0,
            "byteLength" : 1320,
            "byteOffset" : 15300
        },
        {
            "buffer" : 0,
            "byteLength" : 330,
            "byteOffset" : 16620
        },
        {
            "buffer" : 0,
            "byteLength" : 900,
            "byteOffset" : 16952
        },
        {
            "buffer" : 0,
            "byteLength" : 900,
            "byteOffset" : 17852
        },
        {
            "buffer" : 0,
            "byteLength" : 600,
            "byteOffset" : 18752
        },
        {
            "buffer" : 0,
            "byteLength" : 150,
            "byteOffset" : 19352
        },
        {
            "buffer" : 0,
            "byteLength" : 3984,
            "byteOffset" : 19504
        },
        {
            "buffer" : 0,
            "byteLength" : 3984,
            "byteOffset" : 23488
        },
        {
            "buffer" : 0,
            "byteLength" : 2656,
            "byteOffset" : 27472
        },
        {
            "buffer" : 0,
            "byteLength" : 1068,
            "byteOffset" : 30128
        },
        {
            "buffer" : 0,
            "byteLength" : 2160,
            "byteOffset" : 31196
        },
        {
            "buffer" : 0,
            "byteLength" : 2160,
            "byteOffset" : 33356
        },
        {
            "buffer" : 0,
            "byteLength" : 1440,
            "byteOffset" : 35516
        },
        {
            "buffer" : 0,
            "byteLength" : 360,
            "byteOffset" : 36956
        }
    ],
    "buffers" : [
        {
            "byteLength" : 37316,
            "uri" : "data:application/octet-stream;base64,"
        }
    ]
}
