{
    "asset" : {
        "generator" : "Khronos glTF Blender I/O v0.9.73",
        "version" : "2.0"
    },
    "scene" : 0,
    "scenes" : [
        {
            "name" : "Scene",
            "nodes" : [
                0
            ]
        }
    ],
    "nodes" : [
        {
            "mesh" : 0,
            "name" : "meteor00"
        }
    ],
    "materials" : [
        {
            "doubleSided" : true,
            "name" : "meteor_dark_brown",
            "pbrMetallicRoughness" : {
                "baseColorFactor" : [
                    0.08713995665311813,
                    0.01775299943983555,
                    0.003744092071428895,
                    1
                ],
                "metallicFactor" : 0,
                "roughnessFactor" : 0.8666666746139526
            }
        },
        {
            "doubleSided" : true,
            "name" : "meteor_brown",
            "pbrMetallicRoughness" : {
                "baseColorFactor" : [
                    0.4200245141983032,
                    0.14333583414554596,
                    0.04907719045877457,
                    1
                ],
                "metallicFactor" : 0,
                "roughnessFactor" : 0.5
            }
        }
    ],
    "meshes" : [
        {
            "name" : "Icosphere.003",
            "primitives" : [
                {
                    "attributes" : {
                        "POSITION" : 0,
                        "NORMAL" : 1,
                        "TEXCOORD_0" : 2
                    },
                    "indices" : 3,
                    "material" : 0
                },
                {
                    "attributes" : {
                        "POSITION" : 4,
                        "NORMAL" : 5,
                        "TEXCOORD_0" : 6
                    },
                    "indices" : 7,
                    "material" : 1
                }
            ]
        }
    ],
    "accessors" : [
        {
            "bufferView" : 0,
            "componentType" : 5126,
            "count" : 1008,
            "max" : [
                1.5401350259780884,
                0.8832260966300964,
                1.0675134658813477
            ],
            "min" : [
                -1.4080640077590942,
                -1.0074310302734375,
                -0.982170581817627
            ],
            "type" : "VEC3"
        },
        {
            "bufferView" : 1,
            "componentType" : 5126,
            "count" : 1008,
            "type" : "VEC3"
        },
        {
            "bufferView" : 2,
            "componentType" : 5126,
            "count" : 1008,
            "type" : "VEC2"
        },
        {
            "bufferView" : 3,
            "componentType" : 5123,
            "count" : 1104,
            "type" : "SCALAR"
        },
        {
            "bufferView" : 4,
            "componentType" : 5126,
            "count" : 144,
            "max" : [
                1.2688426971435547,
                0.7766779661178589,
                0.9349473118782043
            ],
            "min" : [
                -1.2356129884719849,
                -0.8542555570602417,
                -0.7466513514518738
            ],
            "type" : "VEC3"
        },
        {
            "bufferView" : 5,
            "componentType" : 5126,
            "count" : 144,
            "type" : "VEC3"
        },
        {
            "bufferView" : 6,
            "componentType" : 5126,
            "count" : 144,
            "type" : "VEC2"
        },
        {
            "bufferView" : 7,
            "componentType" : 5123,
            "count" : 144,
            "type" : "SCALAR"
        }
    ],
    "bufferViews" : [
        {
            "buffer" : 0,
            "byteLength" : 12096,
            "byteOffset" : 0
        },
        {
            "buffer" : 0,
            "byteLength" : 12096,
            "byteOffset" : 12096
        },
        {
            "buffer" : 0,
            "byteLength" : 8064,
            "byteOffset" : 24192
        },
        {
            "buffer" : 0,
            "byteLength" : 2208,
            "byteOffset" : 32256
        },
        {
            "buffer" : 0,
            "byteLength" : 1728,
            "byteOffset" : 34464
        },
        {
            "buffer" : 0,
            "byteLength" : 1728,
            "byteOffset" : 36192
        },
        {
            "buffer" : 0,
            "byteLength" : 1152,
            "byteOffset" : 37920
        },
        {
            "buffer" : 0,
            "byteLength" : 288,
            "byteOffset" : 39072
        }
    ],
    "buffers" : [
        {
            "byteLength" : 39360,
            "uri" : "data:application/octet-stream;base64,"
        }
    ]
}
