{
    "asset" : {
        "generator" : "Khronos glTF Blender I/O v0.9.73",
        "version" : "2.0"
    },
    "scene" : 0,
    "scenes" : [
        {
            "name" : "Scene",
            "nodes" : [
                0
            ]
        }
    ],
    "nodes" : [
        {
            "mesh" : 0,
            "name" : "satellite00"
        }
    ],
    "materials" : [
        {
            "doubleSided" : true,
            "name" : "blue",
            "pbrMetallicRoughness" : {
                "baseColorFactor" : [
                    0.05571439489722252,
                    0.2952897548675537,
                    0.8000000715255737,
                    1
                ],
                "metallicFactor" : 0,
                "roughnessFactor" : 0.5
            }
        },
        {
            "doubleSided" : true,
            "name" : "light_grey",
            "pbrMetallicRoughness" : {
                "baseColorFactor" : [
                    0.800000011920929,
                    0.800000011920929,
                    0.800000011920929,
                    1
                ],
                "metallicFactor" : 0,
                "roughnessFactor" : 0.5
            }
        },
        {
            "doubleSided" : true,
            "name" : "grey",
            "pbrMetallicRoughness" : {
                "baseColorFactor" : [
                    0.16794881224632263,
                    0.16794881224632263,
                    0.16794881224632263,
                    1
                ],
                "metallicFactor" : 0,
                "roughnessFactor" : 0.5
            }
        }
    ],
    "meshes" : [
        {
            "name" : "Cylinder",
            "primitives" : [
                {
                    "attributes" : {
                        "POSITION" : 0,
                        "NORMAL" : 1,
                        "TEXCOORD_0" : 2
                    },
                    "indices" : 3,
                    "material" : 0
                },
                {
                    "attributes" : {
                        "POSITION" : 4,
                        "NORMAL" : 5,
                        "TEXCOORD_0" : 6
                    },
                    "indices" : 7,
                    "material" : 1
                },
                {
                    "attributes" : {
                        "POSITION" : 8,
                        "NORMAL" : 9,
                        "TEXCOORD_0" : 10
                    },
                    "indices" : 11,
                    "material" : 2
                }
            ]
        }
    ],
    "accessors" : [
        {
            "bufferView" : 0,
            "componentType" : 5126,
            "count" : 48,
            "max" : [
                1.8289122581481934,
                0.20240268111228943,
                0.010845422744750977
            ],
            "min" : [
                -1.827314853668213,
                -0.20240268111228943,
                -0.010845422744750977
            ],
            "type" : "VEC3"
        },
        {
            "bufferView" : 1,
            "componentType" : 5126,
            "count" : 48,
            "type" : "VEC3"
        },
        {
            "bufferView" : 2,
            "componentType" : 5126,
            "count" : 48,
            "type" : "VEC2"
        },
        {
            "bufferView" : 3,
            "componentType" : 5123,
            "count" : 72,
            "type" : "SCALAR"
        },
        {
            "bufferView" : 4,
            "componentType" : 5126,
            "count" : 444,
            "max" : [
                1.8363291025161743,
                0.7831955552101135,
                0.3926900029182434
            ],
            "min" : [
                -1.8363291025161743,
                -0.46554049849510193,
                -0.3926902413368225
            ],
            "type" : "VEC3"
        },
        {
            "bufferView" : 5,
            "componentType" : 5126,
            "count" : 444,
            "type" : "VEC3"
        },
        {
            "bufferView" : 6,
            "componentType" : 5126,
            "count" : 444,
            "type" : "VEC2"
        },
        {
            "bufferView" : 7,
            "componentType" : 5123,
            "count" : 732,
            "type" : "SCALAR"
        },
        {
            "bufferView" : 8,
            "componentType" : 5126,
            "count" : 272,
            "max" : [
                0.3500020205974579,
                0.7460203170776367,
                0.35000160336494446
            ],
            "min" : [
                -0.35000166296958923,
                -0.46554049849510193,
                -0.35000208020210266
            ],
            "type" : "VEC3"
        },
        {
            "bufferView" : 9,
            "componentType" : 5126,
            "count" : 272,
            "type" : "VEC3"
        },
        {
            "bufferView" : 10,
            "componentType" : 5126,
            "count" : 272,
            "type" : "VEC2"
        },
        {
            "bufferView" : 11,
            "componentType" : 5123,
            "count" : 516,
            "type" : "SCALAR"
        }
    ],
    "bufferViews" : [
        {
            "buffer" : 0,
            "byteLength" : 576,
            "byteOffset" : 0
        },
        {
            "buffer" : 0,
            "byteLength" : 576,
            "byteOffset" : 576
        },
        {
            "buffer" : 0,
            "byteLength" : 384,
            "byteOffset" : 1152
        },
        {
            "buffer" : 0,
            "byteLength" : 144,
            "byteOffset" : 1536
        },
        {
            "buffer" : 0,
            "byteLength" : 5328,
            "byteOffset" : 1680
        },
        {
            "buffer" : 0,
            "byteLength" : 5328,
            "byteOffset" : 7008
        },
        {
            "buffer" : 0,
            "byteLength" : 3552,
            "byteOffset" : 12336
        },
        {
            "buffer" : 0,
            "byteLength" : 1464,
            "byteOffset" : 15888
        },
        {
            "buffer" : 0,
            "byteLength" : 3264,
            "byteOffset" : 17352
        },
        {
            "buffer" : 0,
            "byteLength" : 3264,
            "byteOffset" : 20616
        },
        {
            "buffer" : 0,
            "byteLength" : 2176,
            "byteOffset" : 23880
        },
        {
            "buffer" : 0,
            "byteLength" : 1032,
            "byteOffset" : 26056
        }
    ],
    "buffers" : [
        {
            "byteLength" : 27088,
            "uri" : "data:application/octet-stream;base64,"
        }
    ]
}
