{
    "asset" : {
        "generator" : "Khronos glTF Blender I/O v0.9.36",
        "version" : "2.0"
    },
    "scene" : 0,
    "scenes" : [
        {
            "name" : "Scene",
            "nodes" : [
                0
            ]
        }
    ],
    "nodes" : [
        {
            "mesh" : 0,
            "name" : "sperm_whale",
            "rotation" : [
                -0.7071067690849304,
                0,
                0,
                0.7071067690849304
            ],
            "translation" : [
                0.00010962784290313721,
                -0.040921345353126526,
                0.2202448844909668
            ]
        }
    ],
    "materials" : [
        {
            "doubleSided" : true,
            "name" : "whale_grey",
            "pbrMetallicRoughness" : {
                "baseColorFactor" : [
                    0.040430571883916855,
                    0.03854679688811302,
                    0.04696175083518028,
                    1
                ],
                "metallicFactor" : 0,
                "roughnessFactor" : 0.7666666507720947
            }
        },
        {
            "doubleSided" : true,
            "name" : "whale_black",
            "pbrMetallicRoughness" : {
                "baseColorFactor" : [
                    0,
                    0,
                    0,
                    1
                ],
                "metallicFactor" : 0,
                "roughnessFactor" : 0.32499998807907104
            }
        }
    ],
    "meshes" : [
        {
            "name" : "Sphere",
            "primitives" : [
                {
                    "attributes" : {
                        "POSITION" : 0,
                        "NORMAL" : 1,
                        "TEXCOORD_0" : 2
                    },
                    "indices" : 3,
                    "material" : 0
                },
                {
                    "attributes" : {
                        "POSITION" : 4,
                        "NORMAL" : 5,
                        "TEXCOORD_0" : 6
                    },
                    "indices" : 7,
                    "material" : 1
                }
            ]
        }
    ],
    "accessors" : [
        {
            "bufferView" : 0,
            "componentType" : 5126,
            "count" : 1128,
            "max" : [
                0.5791709423065186,
                2.448089599609375,
                0.4665563404560089
            ],
            "min" : [
                -0.5790314078330994,
                -1.6954128742218018,
                -0.5533261299133301
            ],
            "type" : "VEC3"
        },
        {
            "bufferView" : 1,
            "componentType" : 5126,
            "count" : 1128,
            "type" : "VEC3"
        },
        {
            "bufferView" : 2,
            "componentType" : 5126,
            "count" : 1128,
            "type" : "VEC2"
        },
        {
            "bufferView" : 3,
            "componentType" : 5123,
            "count" : 1722,
            "type" : "SCALAR"
        },
        {
            "bufferView" : 4,
            "componentType" : 5126,
            "count" : 68,
            "max" : [
                0.262208491563797,
                -0.8665741682052612,
                -0.09711263328790665
            ],
            "min" : [
                -0.26076993346214294,
                -0.9262130856513977,
                -0.12860457599163055
            ],
            "type" : "VEC3"
        },
        {
            "bufferView" : 5,
            "componentType" : 5126,
            "count" : 68,
            "type" : "VEC3"
        },
        {
            "bufferView" : 6,
            "componentType" : 5126,
            "count" : 68,
            "type" : "VEC2"
        },
        {
            "bufferView" : 7,
            "componentType" : 5123,
            "count" : 240,
            "type" : "SCALAR"
        }
    ],
    "bufferViews" : [
        {
            "buffer" : 0,
            "byteLength" : 13536,
            "byteOffset" : 0
        },
        {
            "buffer" : 0,
            "byteLength" : 13536,
            "byteOffset" : 13536
        },
        {
            "buffer" : 0,
            "byteLength" : 9024,
            "byteOffset" : 27072
        },
        {
            "buffer" : 0,
            "byteLength" : 3444,
            "byteOffset" : 36096
        },
        {
            "buffer" : 0,
            "byteLength" : 816,
            "byteOffset" : 39540
        },
        {
            "buffer" : 0,
            "byteLength" : 816,
            "byteOffset" : 40356
        },
        {
            "buffer" : 0,
            "byteLength" : 544,
            "byteOffset" : 41172
        },
        {
            "buffer" : 0,
            "byteLength" : 480,
            "byteOffset" : 41716
        }
    ],
    "buffers" : [
        {
            "byteLength" : 42196,
            "uri" : "data:application/octet-stream;base64,"
        }
    ]
}
