{
    "asset" : {
        "generator" : "Khronos glTF Blender I/O v0.9.36",
        "version" : "2.0"
    },
    "scene" : 0,
    "scenes" : [
        {
            "name" : "Scene",
            "nodes" : [
                0
            ]
        }
    ],
    "nodes" : [
        {
            "mesh" : 0,
            "name" : "UFO"
        }
    ],
    "materials" : [
        {
            "doubleSided" : true,
            "name" : "UFO_green",
            "pbrMetallicRoughness" : {
                "baseColorFactor" : [
                    0.3771052360534668,
                    0.8000000715255737,
                    0.5149260759353638,
                    1
                ],
                "metallicFactor" : 1,
                "roughnessFactor" : 0.3166666626930237
            }
        },
        {
            "doubleSided" : true,
            "name" : "UFO_blue",
            "pbrMetallicRoughness" : {
                "baseColorFactor" : [
                    0.060202423483133316,
                    0.06479966640472412,
                    0.8000000715255737,
                    1
                ],
                "metallicFactor" : 0,
                "roughnessFactor" : 0.1666666567325592
            }
        }
    ],
    "meshes" : [
        {
            "name" : "Sphere",
            "primitives" : [
                {
                    "attributes" : {
                        "POSITION" : 0,
                        "NORMAL" : 1,
                        "TEXCOORD_0" : 2
                    },
                    "indices" : 3,
                    "material" : 0
                },
                {
                    "attributes" : {
                        "POSITION" : 4,
                        "NORMAL" : 5,
                        "TEXCOORD_0" : 6
                    },
                    "indices" : 7,
                    "material" : 1
                }
            ]
        }
    ],
    "accessors" : [
        {
            "bufferView" : 0,
            "componentType" : 5126,
            "count" : 115,
            "max" : [
                1.9649361371994019,
                0.4369930326938629,
                1.6714744567871094
            ],
            "min" : [
                -1.9649360179901123,
                -0.560189962387085,
                -2.0660557746887207
            ],
            "type" : "VEC3"
        },
        {
            "bufferView" : 1,
            "componentType" : 5126,
            "count" : 115,
            "type" : "VEC3"
        },
        {
            "bufferView" : 2,
            "componentType" : 5126,
            "count" : 115,
            "type" : "VEC2"
        },
        {
            "bufferView" : 3,
            "componentType" : 5123,
            "count" : 165,
            "type" : "SCALAR"
        },
        {
            "bufferView" : 4,
            "componentType" : 5126,
            "count" : 355,
            "max" : [
                2.0004985332489014,
                0.904829740524292,
                1.721740484237671
            ],
            "min" : [
                -1.99599289894104,
                -0.051002878695726395,
                -2.0834338665008545
            ],
            "type" : "VEC3"
        },
        {
            "bufferView" : 5,
            "componentType" : 5126,
            "count" : 355,
            "type" : "VEC3"
        },
        {
            "bufferView" : 6,
            "componentType" : 5126,
            "count" : 355,
            "type" : "VEC2"
        },
        {
            "bufferView" : 7,
            "componentType" : 5123,
            "count" : 375,
            "type" : "SCALAR"
        }
    ],
    "bufferViews" : [
        {
            "buffer" : 0,
            "byteLength" : 1380,
            "byteOffset" : 0
        },
        {
            "buffer" : 0,
            "byteLength" : 1380,
            "byteOffset" : 1380
        },
        {
            "buffer" : 0,
            "byteLength" : 920,
            "byteOffset" : 2760
        },
        {
            "buffer" : 0,
            "byteLength" : 330,
            "byteOffset" : 3680
        },
        {
            "buffer" : 0,
            "byteLength" : 4260,
            "byteOffset" : 4012
        },
        {
            "buffer" : 0,
            "byteLength" : 4260,
            "byteOffset" : 8272
        },
        {
            "buffer" : 0,
            "byteLength" : 2840,
            "byteOffset" : 12532
        },
        {
            "buffer" : 0,
            "byteLength" : 750,
            "byteOffset" : 15372
        }
    ],
    "buffers" : [
        {
            "byteLength" : 16124,
            "uri" : "data:application/octet-stream;base64,"
        }
    ]
}
