{
    "asset" : {
        "generator" : "Khronos glTF Blender I/O v0.9.36",
        "version" : "2.0"
    },
    "scene" : 0,
    "scenes" : [
        {
            "name" : "Scene",
            "nodes" : [
                0
            ]
        }
    ],
    "nodes" : [
        {
            "mesh" : 0,
            "name" : "yellow_box_mad_man_not_included",
            "rotation" : [
                0,
                0,
                -0.7071067690849304,
                0.7071068286895752
            ],
            "scale" : [
                0.04939837381243706,
                0.03366896137595177,
                0.04938427358865738
            ],
            "translation" : [
                -0.8534313440322876,
                0.2626965641975403,
                -0.677314043045044
            ]
        }
    ],
    "materials" : [
        {
            "doubleSided" : true,
            "name" : "black",
            "pbrMetallicRoughness" : {
                "baseColorFactor" : [
                    0,
                    0,
                    0,
                    1
                ],
                "metallicFactor" : 0,
                "roughnessFactor" : 0.5
            }
        },
        {
            "doubleSided" : true,
            "name" : "yellow",
            "pbrMetallicRoughness" : {
                "baseColorFactor" : [
                    0.8000000715255737,
                    0.34880661964416504,
                    0,
                    1
                ],
                "metallicFactor" : 0,
                "roughnessFactor" : 0.4000000059604645
            }
        },
        {
            "doubleSided" : true,
            "name" : "glass",
            "pbrMetallicRoughness" : {
                "baseColorFactor" : [
                    0.5279654264450073,
                    0.5135351419448853,
                    0.8000000715255737,
                    1
                ],
                "metallicFactor" : 0,
                "roughnessFactor" : 0.28333333134651184
            }
        },
        {
            "doubleSided" : true,
            "name" : "grey",
            "pbrMetallicRoughness" : {
                "baseColorFactor" : [
                    0.800000011920929,
                    0.800000011920929,
                    0.800000011920929,
                    1
                ],
                "metallicFactor" : 1,
                "roughnessFactor" : 0.5
            }
        }
    ],
    "meshes" : [
        {
            "name" : "Cylinder",
            "primitives" : [
                {
                    "attributes" : {
                        "POSITION" : 0,
                        "NORMAL" : 1,
                        "TEXCOORD_0" : 2
                    },
                    "indices" : 3,
                    "material" : 0
                },
                {
                    "attributes" : {
                        "POSITION" : 4,
                        "NORMAL" : 5,
                        "TEXCOORD_0" : 6
                    },
                    "indices" : 7,
                    "material" : 1
                },
                {
                    "attributes" : {
                        "POSITION" : 8,
                        "NORMAL" : 9,
                        "TEXCOORD_0" : 10
                    },
                    "indices" : 11,
                    "material" : 2
                },
                {
                    "attributes" : {
                        "POSITION" : 12,
                        "NORMAL" : 13,
                        "TEXCOORD_0" : 14
                    },
                    "indices" : 15,
                    "material" : 3
                }
            ]
        }
    ],
    "accessors" : [
        {
            "bufferView" : 0,
            "componentType" : 5126,
            "count" : 206,
            "max" : [
                40.47053527832031,
                42.34746170043945,
                31.210527420043945
            ],
            "min" : [
                -29.834693908691406,
                -4.702876091003418,
                -3.7801761627197266
            ],
            "type" : "VEC3"
        },
        {
            "bufferView" : 1,
            "componentType" : 5126,
            "count" : 206,
            "type" : "VEC3"
        },
        {
            "bufferView" : 2,
            "componentType" : 5126,
            "count" : 206,
            "type" : "VEC2"
        },
        {
            "bufferView" : 3,
            "componentType" : 5123,
            "count" : 312,
            "type" : "SCALAR"
        },
        {
            "bufferView" : 4,
            "componentType" : 5126,
            "count" : 166,
            "max" : [
                46.10139465332031,
                51.009193420410156,
                31.210527420043945
            ],
            "min" : [
                -38.35630416870117,
                -0.3137645721435547,
                -3.7801761627197266
            ],
            "type" : "VEC3"
        },
        {
            "bufferView" : 5,
            "componentType" : 5126,
            "count" : 166,
            "type" : "VEC3"
        },
        {
            "bufferView" : 6,
            "componentType" : 5126,
            "count" : 166,
            "type" : "VEC2"
        },
        {
            "bufferView" : 7,
            "componentType" : 5123,
            "count" : 300,
            "type" : "SCALAR"
        },
        {
            "bufferView" : 8,
            "componentType" : 5126,
            "count" : 24,
            "max" : [
                38.70829772949219,
                40.4647216796875,
                29.605831146240234
            ],
            "min" : [
                -28.07245635986328,
                2.0399398803710938,
                -2.1754798889160156
            ],
            "type" : "VEC3"
        },
        {
            "bufferView" : 9,
            "componentType" : 5126,
            "count" : 24,
            "type" : "VEC3"
        },
        {
            "bufferView" : 10,
            "componentType" : 5126,
            "count" : 24,
            "type" : "VEC2"
        },
        {
            "bufferView" : 11,
            "componentType" : 5123,
            "count" : 36,
            "type" : "SCALAR"
        },
        {
            "bufferView" : 12,
            "componentType" : 5126,
            "count" : 10,
            "max" : [
                46.10139465332031,
                1.1344280242919922,
                31.210527420043945
            ],
            "min" : [
                43.799800872802734,
                -0.3137645721435547,
                -3.7801761627197266
            ],
            "type" : "VEC3"
        },
        {
            "bufferView" : 13,
            "componentType" : 5126,
            "count" : 10,
            "type" : "VEC3"
        },
        {
            "bufferView" : 14,
            "componentType" : 5126,
            "count" : 10,
            "type" : "VEC2"
        },
        {
            "bufferView" : 15,
            "componentType" : 5123,
            "count" : 12,
            "type" : "SCALAR"
        }
    ],
    "bufferViews" : [
        {
            "buffer" : 0,
            "byteLength" : 2472,
            "byteOffset" : 0
        },
        {
            "buffer" : 0,
            "byteLength" : 2472,
            "byteOffset" : 2472
        },
        {
            "buffer" : 0,
            "byteLength" : 1648,
            "byteOffset" : 4944
        },
        {
            "buffer" : 0,
            "byteLength" : 624,
            "byteOffset" : 6592
        },
        {
            "buffer" : 0,
            "byteLength" : 1992,
            "byteOffset" : 7216
        },
        {
            "buffer" : 0,
            "byteLength" : 1992,
            "byteOffset" : 9208
        },
        {
            "buffer" : 0,
            "byteLength" : 1328,
            "byteOffset" : 11200
        },
        {
            "buffer" : 0,
            "byteLength" : 600,
            "byteOffset" : 12528
        },
        {
            "buffer" : 0,
            "byteLength" : 288,
            "byteOffset" : 13128
        },
        {
            "buffer" : 0,
            "byteLength" : 288,
            "byteOffset" : 13416
        },
        {
            "buffer" : 0,
            "byteLength" : 192,
            "byteOffset" : 13704
        },
        {
            "buffer" : 0,
            "byteLength" : 72,
            "byteOffset" : 13896
        },
        {
            "buffer" : 0,
            "byteLength" : 120,
            "byteOffset" : 13968
        },
        {
            "buffer" : 0,
            "byteLength" : 120,
            "byteOffset" : 14088
        },
        {
            "buffer" : 0,
            "byteLength" : 80,
            "byteOffset" : 14208
        },
        {
            "buffer" : 0,
            "byteLength" : 24,
            "byteOffset" : 14288
        }
    ],
    "buffers" : [
        {
            "byteLength" : 14312,
            "uri" : "data:application/octet-stream;base64,"
        }
    ]
}
