{
    "asset" : {
        "generator" : "Khronos glTF Blender I/O v0.9.73",
        "version" : "2.0"
    },
    "scene" : 0,
    "scenes" : [
        {
            "name" : "Scene",
            "nodes" : [
                0
            ]
        }
    ],
    "nodes" : [
        {
            "mesh" : 0,
            "name" : "Thruster00"
        }
    ],
    "materials" : [
        {
            "doubleSided" : true,
            "name" : "Rakete_Triebwerk.003",
            "pbrMetallicRoughness" : {
                "baseColorFactor" : [
                    0.043727632611989975,
                    0.043727632611989975,
                    0.043727632611989975,
                    1
                ],
                "metallicFactor" : 0,
                "roughnessFactor" : 0.5
            }
        },
        {
            "doubleSided" : true,
            "name" : "Blau.003",
            "pbrMetallicRoughness" : {
                "baseColorFactor" : [
                    0.005416117142885923,
                    0.0031916662119328976,
                    0.8000000715255737,
                    1
                ],
                "metallicFactor" : 0,
                "roughnessFactor" : 0.5
            }
        },
        {
            "doubleSided" : true,
            "name" : "Wei\u00df.009",
            "pbrMetallicRoughness" : {
                "baseColorFactor" : [
                    0.800000011920929,
                    0.800000011920929,
                    0.800000011920929,
                    1
                ],
                "metallicFactor" : 0,
                "roughnessFactor" : 0.5
            }
        }
    ],
    "meshes" : [
        {
            "name" : "Cylinder.008",
            "primitives" : [
                {
                    "attributes" : {
                        "POSITION" : 0,
                        "NORMAL" : 1,
                        "TEXCOORD_0" : 2
                    },
                    "indices" : 3,
                    "material" : 0
                },
                {
                    "attributes" : {
                        "POSITION" : 4,
                        "NORMAL" : 5,
                        "TEXCOORD_0" : 6
                    },
                    "indices" : 7,
                    "material" : 1
                },
                {
                    "attributes" : {
                        "POSITION" : 8,
                        "NORMAL" : 9,
                        "TEXCOORD_0" : 10
                    },
                    "indices" : 11,
                    "material" : 2
                }
            ]
        }
    ],
    "accessors" : [
        {
            "bufferView" : 0,
            "componentType" : 5126,
            "count" : 168,
            "max" : [
                0.38381427526474,
                0.5,
                0.3838142454624176
            ],
            "min" : [
                -0.38381427526474,
                -0.5,
                -0.3838143050670624
            ],
            "type" : "VEC3"
        },
        {
            "bufferView" : 1,
            "componentType" : 5126,
            "count" : 168,
            "type" : "VEC3"
        },
        {
            "bufferView" : 2,
            "componentType" : 5126,
            "count" : 168,
            "type" : "VEC2"
        },
        {
            "bufferView" : 3,
            "componentType" : 5123,
            "count" : 276,
            "type" : "SCALAR"
        },
        {
            "bufferView" : 4,
            "componentType" : 5126,
            "count" : 80,
            "max" : [
                0.4562636911869049,
                0.5,
                0.45626378059387207
            ],
            "min" : [
                -0.4562639594078064,
                -0.27377766370773315,
                -0.4562637507915497
            ],
            "type" : "VEC3"
        },
        {
            "bufferView" : 5,
            "componentType" : 5126,
            "count" : 80,
            "type" : "VEC3"
        },
        {
            "bufferView" : 6,
            "componentType" : 5126,
            "count" : 80,
            "type" : "VEC2"
        },
        {
            "bufferView" : 7,
            "componentType" : 5123,
            "count" : 120,
            "type" : "SCALAR"
        },
        {
            "bufferView" : 8,
            "componentType" : 5126,
            "count" : 32,
            "max" : [
                0.25,
                0.5,
                0.25
            ],
            "min" : [
                -0.25,
                -0.00581088662147522,
                -0.25
            ],
            "type" : "VEC3"
        },
        {
            "bufferView" : 9,
            "componentType" : 5126,
            "count" : 32,
            "type" : "VEC3"
        },
        {
            "bufferView" : 10,
            "componentType" : 5126,
            "count" : 32,
            "type" : "VEC2"
        },
        {
            "bufferView" : 11,
            "componentType" : 5123,
            "count" : 48,
            "type" : "SCALAR"
        }
    ],
    "bufferViews" : [
        {
            "buffer" : 0,
            "byteLength" : 2016,
            "byteOffset" : 0
        },
        {
            "buffer" : 0,
            "byteLength" : 2016,
            "byteOffset" : 2016
        },
        {
            "buffer" : 0,
            "byteLength" : 1344,
            "byteOffset" : 4032
        },
        {
            "buffer" : 0,
            "byteLength" : 552,
            "byteOffset" : 5376
        },
        {
            "buffer" : 0,
            "byteLength" : 960,
            "byteOffset" : 5928
        },
        {
            "buffer" : 0,
            "byteLength" : 960,
            "byteOffset" : 6888
        },
        {
            "buffer" : 0,
            "byteLength" : 640,
            "byteOffset" : 7848
        },
        {
            "buffer" : 0,
            "byteLength" : 240,
            "byteOffset" : 8488
        },
        {
            "buffer" : 0,
            "byteLength" : 384,
            "byteOffset" : 8728
        },
        {
            "buffer" : 0,
            "byteLength" : 384,
            "byteOffset" : 9112
        },
        {
            "buffer" : 0,
            "byteLength" : 256,
            "byteOffset" : 9496
        },
        {
            "buffer" : 0,
            "byteLength" : 96,
            "byteOffset" : 9752
        }
    ],
    "buffers" : [
        {
            "byteLength" : 9848,
            "uri" : "data:application/octet-stream;base64,"
        }
    ]
}
