{
    "asset" : {
        "generator" : "Khronos glTF Blender I/O v0.9.36",
        "version" : "2.0"
    },
    "scene" : 0,
    "scenes" : [
        {
            "name" : "Scene",
            "nodes" : [
                0
            ]
        }
    ],
    "nodes" : [
        {
            "mesh" : 0,
            "name" : "Thruster10",
            "scale" : [
                1,
                0.30106204748153687,
                1
            ]
        }
    ],
    "materials" : [
        {
            "doubleSided" : true,
            "name" : "white",
            "pbrMetallicRoughness" : {
                "baseColorFactor" : [
                    1,
                    1,
                    1,
                    1
                ],
                "metallicFactor" : 1,
                "roughnessFactor" : 0.7583333253860474
            }
        },
        {
            "doubleSided" : true,
            "name" : "Thruster_grey",
            "pbrMetallicRoughness" : {
                "baseColorFactor" : [
                    0.043727632611989975,
                    0.043727632611989975,
                    0.043727632611989975,
                    1
                ],
                "metallicFactor" : 1,
                "roughnessFactor" : 0.5
            }
        }
    ],
    "meshes" : [
        {
            "name" : "Cylinder.021",
            "primitives" : [
                {
                    "attributes" : {
                        "POSITION" : 0,
                        "NORMAL" : 1,
                        "TEXCOORD_0" : 2
                    },
                    "indices" : 3,
                    "material" : 0
                },
                {
                    "attributes" : {
                        "POSITION" : 4,
                        "NORMAL" : 5,
                        "TEXCOORD_0" : 6
                    },
                    "indices" : 7,
                    "material" : 1
                }
            ]
        }
    ],
    "accessors" : [
        {
            "bufferView" : 0,
            "componentType" : 5126,
            "count" : 120,
            "max" : [
                0.4977063834667206,
                1.274999976158142,
                0.4977063536643982
            ],
            "min" : [
                -0.4977063834667206,
                -1.2750000953674316,
                -0.49770641326904297
            ],
            "type" : "VEC3"
        },
        {
            "bufferView" : 1,
            "componentType" : 5126,
            "count" : 120,
            "type" : "VEC3"
        },
        {
            "bufferView" : 2,
            "componentType" : 5126,
            "count" : 120,
            "type" : "VEC2"
        },
        {
            "bufferView" : 3,
            "componentType" : 5123,
            "count" : 204,
            "type" : "SCALAR"
        },
        {
            "bufferView" : 4,
            "componentType" : 5126,
            "count" : 336,
            "max" : [
                0.3980949819087982,
                1.274999976158142,
                0.39809495210647583
            ],
            "min" : [
                -0.3980949819087982,
                -2.1311912536621094,
                -0.3980950117111206
            ],
            "type" : "VEC3"
        },
        {
            "bufferView" : 5,
            "componentType" : 5126,
            "count" : 336,
            "type" : "VEC3"
        },
        {
            "bufferView" : 6,
            "componentType" : 5126,
            "count" : 336,
            "type" : "VEC2"
        },
        {
            "bufferView" : 7,
            "componentType" : 5123,
            "count" : 600,
            "type" : "SCALAR"
        }
    ],
    "bufferViews" : [
        {
            "buffer" : 0,
            "byteLength" : 1440,
            "byteOffset" : 0
        },
        {
            "buffer" : 0,
            "byteLength" : 1440,
            "byteOffset" : 1440
        },
        {
            "buffer" : 0,
            "byteLength" : 960,
            "byteOffset" : 2880
        },
        {
            "buffer" : 0,
            "byteLength" : 408,
            "byteOffset" : 3840
        },
        {
            "buffer" : 0,
            "byteLength" : 4032,
            "byteOffset" : 4248
        },
        {
            "buffer" : 0,
            "byteLength" : 4032,
            "byteOffset" : 8280
        },
        {
            "buffer" : 0,
            "byteLength" : 2688,
            "byteOffset" : 12312
        },
        {
            "buffer" : 0,
            "byteLength" : 1200,
            "byteOffset" : 15000
        }
    ],
    "buffers" : [
        {
            "byteLength" : 16200,
            "uri" : "data:application/octet-stream;base64,"
        }
    ]
}
