{
    "asset" : {
        "generator" : "Khronos glTF Blender I/O v0.9.36",
        "version" : "2.0"
    },
    "scene" : 0,
    "scenes" : [
        {
            "name" : "Scene",
            "nodes" : [
                0
            ]
        }
    ],
    "nodes" : [
        {
            "mesh" : 0,
            "name" : "Tank07",
            "scale" : [
                1,
                1.1700000762939453,
                1
            ]
        }
    ],
    "materials" : [
        {
            "doubleSided" : true,
            "name" : "silver",
            "pbrMetallicRoughness" : {
                "baseColorFactor" : [
                    0.3031982481479645,
                    0.3031982481479645,
                    0.3031982481479645,
                    1
                ],
                "metallicFactor" : 1,
                "roughnessFactor" : 0.3999999761581421
            }
        },
        {
            "doubleSided" : true,
            "name" : "Thruster_grey",
            "pbrMetallicRoughness" : {
                "baseColorFactor" : [
                    0.043727632611989975,
                    0.043727632611989975,
                    0.043727632611989975,
                    1
                ],
                "metallicFactor" : 1,
                "roughnessFactor" : 0.5
            }
        }
    ],
    "meshes" : [
        {
            "name" : "Cylinder.016",
            "primitives" : [
                {
                    "attributes" : {
                        "POSITION" : 0,
                        "NORMAL" : 1,
                        "TEXCOORD_0" : 2
                    },
                    "indices" : 3,
                    "material" : 0
                },
                {
                    "attributes" : {
                        "POSITION" : 4,
                        "NORMAL" : 5,
                        "TEXCOORD_0" : 6
                    },
                    "indices" : 7,
                    "material" : 1
                }
            ]
        }
    ],
    "accessors" : [
        {
            "bufferView" : 0,
            "componentType" : 5126,
            "count" : 136,
            "max" : [
                0.25,
                1.274999976158142,
                0.25
            ],
            "min" : [
                -0.25,
                -1.274999976158142,
                -0.25
            ],
            "type" : "VEC3"
        },
        {
            "bufferView" : 1,
            "componentType" : 5126,
            "count" : 136,
            "type" : "VEC3"
        },
        {
            "bufferView" : 2,
            "componentType" : 5126,
            "count" : 136,
            "type" : "VEC2"
        },
        {
            "bufferView" : 3,
            "componentType" : 5123,
            "count" : 228,
            "type" : "SCALAR"
        },
        {
            "bufferView" : 4,
            "componentType" : 5126,
            "count" : 96,
            "max" : [
                0.42855942249298096,
                1.153740406036377,
                0.4285595417022705
            ],
            "min" : [
                -0.42855963110923767,
                -1.274999976158142,
                -0.42855945229530334
            ],
            "type" : "VEC3"
        },
        {
            "bufferView" : 5,
            "componentType" : 5126,
            "count" : 96,
            "type" : "VEC3"
        },
        {
            "bufferView" : 6,
            "componentType" : 5126,
            "count" : 96,
            "type" : "VEC2"
        },
        {
            "bufferView" : 7,
            "componentType" : 5123,
            "count" : 144,
            "type" : "SCALAR"
        }
    ],
    "bufferViews" : [
        {
            "buffer" : 0,
            "byteLength" : 1632,
            "byteOffset" : 0
        },
        {
            "buffer" : 0,
            "byteLength" : 1632,
            "byteOffset" : 1632
        },
        {
            "buffer" : 0,
            "byteLength" : 1088,
            "byteOffset" : 3264
        },
        {
            "buffer" : 0,
            "byteLength" : 456,
            "byteOffset" : 4352
        },
        {
            "buffer" : 0,
            "byteLength" : 1152,
            "byteOffset" : 4808
        },
        {
            "buffer" : 0,
            "byteLength" : 1152,
            "byteOffset" : 5960
        },
        {
            "buffer" : 0,
            "byteLength" : 768,
            "byteOffset" : 7112
        },
        {
            "buffer" : 0,
            "byteLength" : 288,
            "byteOffset" : 7880
        }
    ],
    "buffers" : [
        {
            "byteLength" : 8168,
            "uri" : "data:application/octet-stream;base64,"
        }
    ]
}
