{
    "asset" : {
        "generator" : "Khronos glTF Blender I/O v0.9.36",
        "version" : "2.0"
    },
    "scene" : 0,
    "scenes" : [
        {
            "name" : "Scene",
            "nodes" : [
                0
            ]
        }
    ],
    "nodes" : [
        {
            "mesh" : 0,
            "name" : "Tank01"
        }
    ],
    "materials" : [
        {
            "doubleSided" : true,
            "name" : "white",
            "pbrMetallicRoughness" : {
                "baseColorFactor" : [
                    1,
                    1,
                    1,
                    1
                ],
                "metallicFactor" : 1,
                "roughnessFactor" : 0.7583333253860474
            }
        },
        {
            "doubleSided" : true,
            "name" : "Rot",
            "pbrMetallicRoughness" : {
                "baseColorFactor" : [
                    0.8000000715255737,
                    0,
                    0,
                    1
                ],
                "metallicFactor" : 1,
                "roughnessFactor" : 0.5
            }
        }
    ],
    "meshes" : [
        {
            "name" : "Cylinder.002",
            "primitives" : [
                {
                    "attributes" : {
                        "POSITION" : 0,
                        "NORMAL" : 1,
                        "TEXCOORD_0" : 2
                    },
                    "indices" : 3,
                    "material" : 0
                },
                {
                    "attributes" : {
                        "POSITION" : 4,
                        "NORMAL" : 5,
                        "TEXCOORD_0" : 6
                    },
                    "indices" : 7,
                    "material" : 1
                }
            ]
        }
    ],
    "accessors" : [
        {
            "bufferView" : 0,
            "componentType" : 5126,
            "count" : 224,
            "max" : [
                0.43641069531440735,
                1.75,
                0.4364108443260193
            ],
            "min" : [
                -0.4364109933376312,
                -1.75,
                -0.43641072511672974
            ],
            "type" : "VEC3"
        },
        {
            "bufferView" : 1,
            "componentType" : 5126,
            "count" : 224,
            "type" : "VEC3"
        },
        {
            "bufferView" : 2,
            "componentType" : 5126,
            "count" : 224,
            "type" : "VEC2"
        },
        {
            "bufferView" : 3,
            "componentType" : 5123,
            "count" : 396,
            "type" : "SCALAR"
        },
        {
            "bufferView" : 4,
            "componentType" : 5126,
            "count" : 80,
            "max" : [
                0.43641069531440735,
                -0.07592558860778809,
                0.4364108443260193
            ],
            "min" : [
                -0.4364109933376312,
                -1.6662280559539795,
                -0.43641072511672974
            ],
            "type" : "VEC3"
        },
        {
            "bufferView" : 5,
            "componentType" : 5126,
            "count" : 80,
            "type" : "VEC3"
        },
        {
            "bufferView" : 6,
            "componentType" : 5126,
            "count" : 80,
            "type" : "VEC2"
        },
        {
            "bufferView" : 7,
            "componentType" : 5123,
            "count" : 120,
            "type" : "SCALAR"
        }
    ],
    "bufferViews" : [
        {
            "buffer" : 0,
            "byteLength" : 2688,
            "byteOffset" : 0
        },
        {
            "buffer" : 0,
            "byteLength" : 2688,
            "byteOffset" : 2688
        },
        {
            "buffer" : 0,
            "byteLength" : 1792,
            "byteOffset" : 5376
        },
        {
            "buffer" : 0,
            "byteLength" : 792,
            "byteOffset" : 7168
        },
        {
            "buffer" : 0,
            "byteLength" : 960,
            "byteOffset" : 7960
        },
        {
            "buffer" : 0,
            "byteLength" : 960,
            "byteOffset" : 8920
        },
        {
            "buffer" : 0,
            "byteLength" : 640,
            "byteOffset" : 9880
        },
        {
            "buffer" : 0,
            "byteLength" : 240,
            "byteOffset" : 10520
        }
    ],
    "buffers" : [
        {
            "byteLength" : 10760,
            "uri" : "data:application/octet-stream;base64,"
        }
    ]
}
